{"title":"(HEVC) Boulevard (2014)","uid":12285327,"size":522650798,"categoryP":"video","categoryS":"hd___movies","magnet":"?xt=urn:btih:69623bc6edf8abaa8c1ea6e546f8f11ec9c26c3f&amp;dn=%28HEVC%29+Boulevard+%282014%29&amp;tr=udp%3A%2F%2Ftracker.openbittorrent.com%3A80&amp;tr=udp%3A%2F%2Fopen.demonii.com%3A1337&amp;tr=udp%3A%2F%2Ftracker.coppersurfer.tk%3A6969&amp;tr=udp%3A%2F%2Fexodus.desync.com%3A6969","seeders":0,"leechers":0,"uploader":"Jell181155","files":1,"time":1440466842,"description":"General\n\nComplete name                            : Boulevard (2014).mkv\nFormat                                   : Matroska\nFormat version                           : Version 4 / Version 2\nFile size                                : 498 MiB\nDuration                                 : 1h 28mn\nOverall bit rate                         : 791 Kbps\nEncoded date                             : UTC 2015-08-24 23:17:32\nWriting application                      : mkvmerge v8.3.0 ('Over the Horizon') 64bit\nWriting library                          : libebml v1.3.1 + libmatroska v1.4.2\n\nVideo\nID                                       : 1\nFormat                                   : HEVC\nFormat/Info                              : High Efficiency Video Coding\nFormat profile                           : Main 10@L4@Main\nCodec ID                                 : V_MPEGH/ISO/HEVC\nDuration                                 : 1h 28mn\nBit rate                                 : 519 Kbps\nWidth                                    : 1 920 pixels\nHeight                                   : 800 pixels\nDisplay aspect ratio                     : 2.40:1\nFrame rate mode                          : Constant\nFrame rate                               : 23.976 fps\nColor space                              : YUV\nChroma subsampling                       : 4:2:0\nBit depth                                : 10 bits\nBits/(Pixel*Frame)                       : 0.014\nStream size                              : 327 MiB (66%)\nWriting library                          : x265 1.7+431-f63273fa3137:[Windows][GCC 4.8.2][64 bit] 10bit\nEncoding settings                        : wpp / ctu=32 / min-cu-size=16 / max-tu-size=32 / tu-intra-depth=1 / tu-inter-depth=1 / me=0 / subme=0 / merange=57 / no-rect / no-amp / max-merge=2 / temporal-mvp / early-skip / rdpenalty=0 / no-tskip / no-tskip-fast / strong-intra-smoothing / no-lossless / no-cu-lossless / no-constrained-intra / fast-intra / open-gop / no-temporal-layers / interlace=0 / keyint=250 / min-keyint=23 / scenecut=0 / rc-lookahead=5 / lookahead-slices=0 / bframes=3 / bframe-bias=0 / b-adapt=0 / ref=1 / limit-refs=0 / no-weightp / no-weightb / aq-mode=0 / qg-size=32 / aq-strength=0.00 / cbqpoffs=0 / crqpoffs=0 / rd=2 / psy-rd=0.30 / rdoq-level=0 / psy-rdoq=0.00 / no-signhide / deblock / no-sao / no-sao-non-deblock / b-pyramid / no-cutree / rc=crf / crf=26.0 / qcomp=0.60 / qpmin=0 / qpmax=51 / qpstep=4 / ipratio=1.40 / pbratio=1.30\nDefault                                  : Yes\nForced                                   : No\n\nAudio\nID                                       : 2\nFormat                                   : AC-3\nFormat/Info                              : Audio Coding 3\nMode extension                           : CM (complete main)\nFormat settings, Endianness              : Big\nCodec ID                                 : A_AC3\nDuration                                 : 1h 28mn\nBit rate mode                            : Constant\nBit rate                                 : 256 Kbps\nChannel(s)                               : 6 channels\nChannel positions                        : Front: L C R, Side: L R, LFE\nSampling rate                            : 48.0 KHz\nCompression mode                         : Lossy\nStream size                              : 161 MiB (32%)\nLanguage                                 : English\nDefault                                  : Yes\nForced                                   : No\n\nText\nID                                       : 3\nFormat                                   : UTF-8\nCodec ID                                 : S_TEXT/UTF8\nCodec ID/Info                            : UTF-8 Plain Text\nLanguage                                 : English\nDefault                                  : Yes\nForced                                   : No","torrent":{"xt":"urn:btih:69623bc6edf8abaa8c1ea6e546f8f11ec9c26c3f","amp;dn":"%28HEVC%29+Boulevard+%282014%29","amp;tr":["udp%3A%2F%2Ftracker.openbittorrent.com%3A80","udp%3A%2F%2Fopen.demonii.com%3A1337","udp%3A%2F%2Ftracker.coppersurfer.tk%3A6969","udp%3A%2F%2Fexodus.desync.com%3A6969"],"infoHash":"69623bc6edf8abaa8c1ea6e546f8f11ec9c26c3f","infoHashBuffer":{"type":"Buffer","data":[105,98,59,198,237,248,171,170,140,30,166,229,70,248,241,30,201,194,108,63]},"announce":[],"urlList":[]}}